<?xml version="1.0" encoding="UTF-8"?> <svg xmlns="http://www.w3.org/2000/svg" width="180" height="62" viewBox="0 0 180 62" fill="none"><path fill-rule="evenodd" clip-rule="evenodd" d="M67.0826 44.4764V41.3337C68.5103 43.2116 70.634 44.898 73.9924 44.898C78.857 44.898 83.4906 41.1036 83.4906 34.3979V34.3215C83.4906 27.615 78.8189 23.8214 73.9924 23.8214C70.7109 23.8214 68.5873 25.5078 67.0826 27.615V16.5023H62.4114V44.4764H67.0826ZM78.7406 34.3215V34.3979C78.7406 38.3829 76.1161 40.8739 72.9116 40.8739C69.7464 40.8739 66.9666 38.3065 66.9666 34.3979V34.3215C66.9666 30.4511 69.7464 27.8447 72.9116 27.8447C76.0781 27.8447 78.7406 30.4129 78.7406 34.3215Z" fill="#00354D"></path><path fill-rule="evenodd" clip-rule="evenodd" d="M87.4705 35.056V35.1324C87.4705 41.3791 92.0257 45.6325 97.9331 45.6325C101.678 45.6325 104.342 44.138 106.272 41.8381L103.531 39.4248C101.909 40.9953 100.288 41.8381 98.0101 41.8381C94.9993 41.8381 92.6447 39.9993 92.1421 36.7033H107.121C107.124 36.6641 107.127 36.6252 107.131 36.5865C107.166 36.172 107.199 35.7864 107.199 35.4007C107.199 29.5756 103.916 24.5177 97.4305 24.5177C91.6014 24.5177 87.4705 29.2691 87.4705 35.056ZM97.3929 28.3112C100.481 28.3112 102.257 30.6489 102.565 33.6379H92.1045C92.5283 30.4957 94.5356 28.3112 97.3929 28.3112Z" fill="#00354D"></path><path d="M111.584 16.5023H116.255V27.3853C117.568 25.4696 119.46 23.8214 122.625 23.8214C127.219 23.8214 129.883 26.8868 129.883 31.6004V44.4764H125.212V32.9799C125.212 29.8376 123.628 28.037 120.85 28.037C118.147 28.037 116.255 29.9149 116.255 33.0563V44.4764H111.584V16.5023Z" fill="#00354D"></path><path fill-rule="evenodd" clip-rule="evenodd" d="M147.194 42.5671V45.0581H151.825V33.0635C151.825 27.6604 148.892 24.5177 142.869 24.5177C139.549 24.5177 137.348 25.2076 135.11 26.2041L136.384 29.9208C138.237 29.1549 139.935 28.6564 142.213 28.6564C145.456 28.6564 147.231 30.1891 147.231 32.9871V33.37C145.649 32.8716 144.066 32.5273 141.595 32.5273C136.847 32.5273 133.333 34.6735 133.333 39.1565V39.2329C133.333 43.2952 136.731 45.4797 140.592 45.4797C143.68 45.4797 145.803 44.2153 147.194 42.5671ZM142.637 35.7841C144.453 35.7841 146.111 36.1293 147.308 36.5887V37.7384C147.308 40.2676 144.993 41.9918 141.903 41.9918C139.704 41.9918 137.965 40.9193 137.965 39.0032V38.9268C137.965 36.9721 139.704 35.7841 142.637 35.7841Z" fill="#00354D"></path><path d="M158.393 16.5023H163.064V44.4764H158.393V16.5023Z" fill="#00354D"></path><path d="M169.963 28.4586H167.376V24.5882H169.963V23.1319C169.963 20.8711 170.541 19.1847 171.622 18.1123C172.704 17.0385 174.209 16.5023 176.216 16.5023C177.837 16.5023 178.957 16.7324 180 17.0385V20.9475C179.073 20.641 178.263 20.4495 177.259 20.4495C175.482 20.4495 174.556 21.4073 174.556 23.5153V24.6264H179.961V28.4586H174.633V44.7065H169.963V28.4586Z" fill="#00354D"></path><path d="M5.3652 52.5971C5.57195 52.5773 5.78443 52.5673 6.00224 52.5673L10.172 52.5479L10.184 56.2014C10.184 56.787 10.1395 57.3248 10.0507 57.8144C9.75304 60.0746 7.81526 61.8193 5.46913 61.8193C2.91689 61.8193 0.8479 59.7546 0.8479 57.2076C0.8479 54.6953 2.86096 52.6522 5.3652 52.5971Z" fill="#00354C"></path><path d="M5.91914 50.4759H11.2154L11.3453 12.1422L6.06547 12.118C3.40371 12.1171 1.21934 10.9357 0 9.05414V53.5468C1.24745 51.6948 3.42602 50.4759 5.91914 50.4759Z" fill="#00AA9D"></path><path d="M33.7805 44.162C33.7805 45.816 33.3526 47.3477 32.5433 48.5917C31.1468 50.8314 29.3144 52.2263 24.525 52.2263H12.3601L12.3436 57.0599C12.3432 59.0365 11.5169 60.7847 10.1753 62H24.9096C35.6503 62 43.4459 54.5254 43.4459 44.2271C43.4459 39.2175 41.6243 34.7359 38.2996 31.478C35.9653 34.0714 32.9212 35.9622 29.4452 37.0143C32.032 38.3427 33.7805 41.0902 33.7805 44.162Z" fill="#1B70B3"></path><path d="M12.5133 6.26369L12.4973 11.0238L20.8033 11.0621C22.5603 11.0621 24.0192 11.1202 24.9418 11.2192C28.3911 11.749 30.993 14.8494 30.993 18.4289C30.993 19.9501 30.6094 21.3397 29.8638 22.4802C29.2838 23.4078 28.6369 24.1615 27.7107 24.7155C31.8675 25.1991 35.5889 26.7709 38.5964 29.334C40.7598 26.355 41.997 22.6492 41.997 18.4945C41.997 7.7778 33.9194 0 22.7918 0H9.83594C11.2578 1.01293 12.5133 2.86673 12.5133 6.26369Z" fill="#35AC46"></path><path d="M5.3652 9.81459C5.57195 9.83435 5.78443 9.84443 6.00224 9.84443L10.172 9.86379L10.184 6.2103C10.184 5.62471 10.1395 5.08691 10.0507 4.59727C9.75304 2.33706 7.81526 0.592346 5.46913 0.592346C2.91689 0.592346 0.8479 2.65707 0.8479 5.20404C0.8479 7.71634 2.86096 9.75944 5.3652 9.81459Z" fill="#00354C"></path><path d="M17.8973 31.007C17.8173 32.2808 18.2652 33.5812 19.241 34.5543C20.1208 35.4316 21.2673 35.8809 22.4206 35.9025C23.6331 35.9251 31.1879 36.0756 36.513 30.3893L36.5101 30.3886L36.5401 30.3787C30.6481 25.2786 23.1505 26.2157 21.947 26.3646C20.8022 26.5063 19.7091 27.0727 18.9261 28.0369C18.2168 28.9104 17.8806 29.9643 17.8973 31.007Z" fill="#00364C"></path></svg> 